<svg width="29" height="18" viewBox="0 0 29 18" fill="none" xmlns="http://www.w3.org/2000/svg">
<path d="M26.3334 0H7.88536C6.89636 0 5.97236 0.486 5.41336 1.301L0.509362 8.434C0.275362 8.775 0.275362 9.226 0.509362 9.567L5.41336 16.7C5.97236 17.514 6.89636 18 7.88536 18H26.3334C27.4364 18 28.3334 17.103 28.3334 16V2C28.3334 0.897 27.4364 0 26.3334 0ZM21.0404 12.293C21.4314 12.684 21.4314 13.316 21.0404 13.707C20.8454 13.902 20.5894 14 20.3334 14C20.0774 14 19.8214 13.902 19.6264 13.707L16.3334 10.414L13.0404 13.707C12.8454 13.902 12.5894 14 12.3334 14C12.0774 14 11.8214 13.902 11.6264 13.707C11.2354 13.316 11.2354 12.684 11.6264 12.293L14.9194 9L11.6264 5.707C11.2354 5.316 11.2354 4.684 11.6264 4.293C12.0174 3.902 12.6494 3.902 13.0404 4.293L16.3334 7.586L19.6264 4.293C20.0174 3.902 20.6494 3.902 21.0404 4.293C21.4314 4.684 21.4314 5.316 21.0404 5.707L17.7474 9L21.0404 12.293Z" fill="#BDBDBD"/>
</svg>
